<?xml version="1.0" encoding="utf-8"?>
<!-- Generator: Adobe Illustrator 28.1.0, SVG Export Plug-In . SVG Version: 6.00 Build 0)  -->
<svg version="1.1" id="Layer_1" xmlns="http://www.w3.org/2000/svg" xmlns:xlink="http://www.w3.org/1999/xlink" x="0px" y="0px"
	 viewBox="0 0 2834.6 2834.6" style="enable-background:new 0 0 2834.6 2834.6;" xml:space="preserve">
<style type="text/css">
	.st0{fill:#FFFFFF;}
</style>
<g>
	<path class="st0" d="M2597.4,516.3h-639v-162c0-86.8-71-157.7-157.7-157.7h-699.3c-86.8,0-157.7,71-157.7,157.7v162.1H304.8
		c-85.1,0-154.6,74.8-154.6,166.3v513h2602v-513C2752.2,591.3,2682.6,516.3,2597.4,516.3z M1120.9,425.2c0-28.5,23-51.5,51.5-51.5
		h557.7c28.5,0,51.5,23,51.5,51.5v91.3h-660.7L1120.9,425.2L1120.9,425.2z"/>
	<path class="st0" d="M1593.7,1519.7c20.1,0,36.3-16.2,36.3-36.3v-89.1c0-20.1-16.2-36.3-36.3-36.3h-285
		c-20.1,0-36.3,16.2-36.3,36.3v89.1c0,20.1,16.2,36.3,36.3,36.3H1593.7z"/>
	<path class="st0" d="M1792.3,1647.2c0,19.2-15.6,34.8-34.8,34.8h-612.6c-19.2,0-34.8-15.6-34.8-34.8v-323.1h-960v848.2
		c0,85.1,69.6,154.6,154.6,154.6h2292.8c85.1,0,154.6-69.6,154.6-154.6v-848.2h-959.9v323.1H1792.3z"/>
</g>
</svg>
