<?xml version="1.0" encoding="utf-8"?>
<!-- Generator: Adobe Illustrator 28.1.0, SVG Export Plug-In . SVG Version: 6.00 Build 0)  -->
<svg version="1.1" id="Layer_1" xmlns="http://www.w3.org/2000/svg" xmlns:xlink="http://www.w3.org/1999/xlink" x="0px" y="0px"
	 viewBox="0 0 2834.6 2834.6" style="enable-background:new 0 0 2834.6 2834.6;" xml:space="preserve">
<style type="text/css">
	.st0{fill:#FFFFFF;}
</style>
<path class="st0" d="M217.2,2678.4h377.9c109.7-4.4,200.1-143.4,200.1-315.1c0-72.7,0-140.6,0-213.3c0-174.5-93.3-320.1-205.4-320.1
	c-34.3,0-71.6,0-105.8,0c0-77.7,0-159.9,0-237.6c0,0,0,0,0-4.8c286.4,0,569.5,0,855.9,0c0,82.5,0,164.9,0,242.4
	c-34.3,0-71.6,0-105.8,0c-112,0-205.4,145.4-205.4,320.1c0,72.7,0,140.6,0,213.3c0,171.7,90.5,310.6,200.1,315.1h377.9
	c109.7-4.4,200.1-143.4,200.1-315.1c0-72.7,0-140.6,0-213.3c0-174.5-93.3-320.1-205.4-320.1c-34.3,0-71.6,0-105.8,0
	c0-77.7,0-159.9,0-242.4c286.4,0,569.5,0,855.9,0c0,4.8,0,4.8,0,4.8c0,77.7,0,159.9,0,237.6c-34.3,0-71.6,0-105.8,0
	c-112,0-205.4,145.4-205.4,320.1c0,72.7,0,140.6,0,213.3c0,171.7,90.5,310.6,200.1,315.1h377.9c109.7-4.4,200.1-143.4,200.1-315.1
	c0-72.7,0-140.6,0-213.3c0-174.5-93.3-320.1-205.4-320.1c-34.3,0-71.6,0-105.8,0c0-77.7,0-159.9,0-242.4
	c0-53.4-9.3-116.3-37.3-169.7c-31.1-48.4-77.8-67.9-118.3-72.7c-286.4,0-569.5,0-855.9,0c0-77.7,0-159.9,0-242.4
	c34.3,0,71.6,0,105.8,0c112,0,205.4-140.6,205.4-315.3c0-72.7,0-140.6,0-213.3c0-174.5-93.3-315.3-205.4-315.3
	c-121.4,0-245.8,0-367.3,0c-112,0-205.4,140.6-205.4,315.3c0,72.7,0,140.6,0,213.3c0,174.5,93.3,315.3,205.4,315.3
	c34.3,0,71.6,0,105.8,0c0,82.5,0,164.9,0,242.4c-286.4,0-569.5,0-855.9,0c0,3.1,0,4.1,0.8,4.6c-36.7-3.8-76.1,15.7-106.6,58.5
	c-31.1,43.6-49.8,111.5-49.8,179.4c0,82.5,0,164.9,0,242.4c-34.3,0-71.6,0-105.8,0c-112,0-205.4,145.4-205.4,320.1
	c0,72.7,0,140.6,0,213.3C17,2535.1,107.5,2674,217.2,2678.4z"/>
</svg>
