<?xml version="1.0" encoding="UTF-8" standalone="no"?>
<svg 
    role="img" 
    xmlns="http://www.w3.org/2000/svg" 
    width="1000mm"
    height="1000mm"
    viewBox="0 0 1000 1000"
    style="max-width:1.6em; height: auto;">
    
    <path 
        id="path" 
        style="opacity:1;vector-effect:none;fill:#000000;fill-opacity:1;"
        d=" M 502 63C 519 63 536 72 549 85C 549 85 959 495 959 495C 965 501 970 507 970 517C 970 526 965 532 959 538C 959 538 899 598 899 598C 892 604 884 609 875 609C 871 609 866 608 863 606C 863 606 863 879 863 879C 863 898 858 915 847 926C 836 937 819 942 800 942C 800 942 600 942 600 942C 589 942 581 936 575 929C 568 923 563 915 563 904C 563 904 563 754 563 754C 563 749 561 747 559 745C 557 743 555 742 550 742C 550 742 450 742 450 742C 445 742 443 743 441 745C 439 747 438 749 438 754C 438 754 438 904 438 904C 438 915 432 923 425 929C 419 936 411 942 400 942C 400 942 200 942 200 942C 181 942 164 937 153 926C 142 915 138 898 138 879C 138 879 138 606 138 606C 134 608 129 609 125 609C 116 609 108 604 101 598C 101 598 41 538 41 538C 35 532 30 526 30 517C 30 507 35 501 41 495C 41 495 138 399 138 399C 138 399 138 104 138 104C 138 97 143 92 150 92C 150 92 325 92 325 92C 332 92 337 97 338 104C 338 104 338 199 338 199C 338 199 451 85 451 85C 464 72 481 63 498 63C 499 63 499 62 500 63C 501 62 501 63 502 63C 502 63 502 63 502 63M 469 103C 469 103 334 238 334 238C 326 246 313 240 313 229C 313 229 313 117 313 117C 313 117 163 117 163 117C 163 117 163 404 163 404C 162 407 161 410 159 413C 159 413 59 513 59 513C 59 513 59 513 59 513C 57 515 56 516 56 516C 56 517 57 518 59 520C 59 520 119 580 119 580C 122 584 124 584 125 584C 126 584 128 584 131 580C 131 580 156 555 156 555C 156 555 476 235 476 235C 482 229 489 224 498 224C 499 224 499 223 500 224C 501 223 501 224 502 224C 511 224 518 229 524 235C 524 235 844 555 844 555C 844 555 869 580 869 580C 872 584 874 584 875 584C 876 584 878 584 881 580C 881 580 941 520 941 520C 943 518 944 517 944 517C 944 516 943 515 941 513C 941 513 531 103 531 103C 521 93 510 88 500 88C 490 88 479 93 469 103C 469 103 469 103 469 103M 494 253C 494 253 174 573 174 573C 174 573 174 573 174 573C 169 578 166 581 165 583C 163 586 163 588 163 594C 163 594 163 879 163 879C 163 895 166 903 171 908C 176 913 184 917 200 917C 200 917 400 917 400 917C 399 917 404 915 407 911C 411 908 413 903 413 904C 413 904 413 754 413 754C 413 744 416 734 423 727C 430 720 440 717 450 717C 450 717 550 717 550 717C 560 717 570 720 577 727C 584 734 588 744 588 754C 588 754 588 904 588 904C 588 903 589 908 593 911C 596 915 601 917 600 917C 600 917 800 917 800 917C 816 917 824 913 829 908C 834 903 838 895 838 879C 838 879 838 594 838 594C 838 588 837 586 835 583C 834 581 831 578 826 573C 826 573 826 573 826 573C 826 573 506 253 506 253C 502 249 500 249 500 249C 500 249 498 249 494 253C 494 253 494 253 494 253"
        transform="translate(1000,0) scale(-1,1)">
    </path>    
</svg>