<?xml version="1.0" encoding="utf-8"?>
<!-- Generator: Adobe Illustrator 28.1.0, SVG Export Plug-In . SVG Version: 6.00 Build 0)  -->
<svg version="1.1" id="Layer_1" xmlns="http://www.w3.org/2000/svg" xmlns:xlink="http://www.w3.org/1999/xlink" x="0px" y="0px"
	 viewBox="0 0 2834.6 2834.6" style="enable-background:new 0 0 2834.6 2834.6;" xml:space="preserve">
<style type="text/css">
	.st0{fill:#FFFFFF;}
</style>
<path id="path" class="st0" d="M1417.3,212.6c-39.7,0-79.4,19.8-113.4,53.9L141.7,1428.7c-28.3,28.3-28.3,42.5,0,70.9l99.2,99.2
	c28.3,28.3,56.7,28.3,85,0L1374.8,549.9c28.3-28.3,56.7-28.3,85,0l1048.8,1048.8c28.3,28.3,56.7,28.3,85,0l99.2-99.2
	c28.3-28.3,28.3-42.5,0-70.9L2452,1187.7c-28.3-28.3-42.5-56.7-42.5-85V756.9V436.5c0-42.5-28.3-70.9-70.9-70.9h-354.3
	c-42.5,0-73.7,28.3-70.9,70.9v212.6l-382.7-382.7C1496.7,232.4,1457,212.6,1417.3,212.6L1417.3,212.6 M1417.3,669
	c-14.2,0-28.3,8.5-42.5,22.7l-907.1,907.1c-28.3,28.3-42.5,42.5-42.5,85v807.9c0,99.2,42.5,141.7,141.7,141.7h566.9
	c28.3,0,70.9-42.5,70.9-70.9v-425.2c0-42.5,28.3-70.9,70.9-70.9h283.5c42.5,0,70.9,28.3,70.9,70.9v425.2c0,28.3,42.5,70.9,70.9,70.9
	h566.9c99.2,0,141.7-42.5,141.7-141.7v-807.9c0-42.5-14.2-56.7-42.5-85l-907.1-907.1C1445.7,677.5,1431.5,669,1417.3,669L1417.3,669
	"/>
</svg>
