<?xml version="1.0" encoding="utf-8"?>
<!-- Generator: Adobe Illustrator 28.1.0, SVG Export Plug-In . SVG Version: 6.00 Build 0)  -->
<svg version="1.1" id="Layer_1" xmlns="http://www.w3.org/2000/svg" xmlns:xlink="http://www.w3.org/1999/xlink" x="0px" y="0px"
	 viewBox="0 0 2834.6 2834.6" style="enable-background:new 0 0 2834.6 2834.6;" xml:space="preserve">
<style type="text/css">
	.st0{fill:#FFFFFF;}
</style>
<path id="path" class="st0" d="M2551.2,462c96.4,0,175.7,79.4,175.7,175.7v226.8l-1085.7,748.3c-96.4,65.2-164.4,87.9-223.9,87.9
	s-127.6-22.7-223.9-87.9L107.7,864.6V637.8c0-96.4,79.4-175.7,175.7-175.7H2551.2 M1074.3,1788.7L1074.3,1788.7
	c116.2,76.5,226.8,124.7,343,124.7s226.8-48.2,343-124.7l0,0l966.6-666.1v1145.2c0,96.4-79.4,175.7-175.7,175.7H283.5
	c-96.4,0-175.7-79.4-175.7-175.7V1122.5L1074.3,1788.7"/>
</svg>
