<?xml version="1.0" encoding="utf-8"?>
<!-- Generator: Adobe Illustrator 28.1.0, SVG Export Plug-In . SVG Version: 6.00 Build 0)  -->
<svg version="1.1" id="Layer_1" xmlns="http://www.w3.org/2000/svg" xmlns:xlink="http://www.w3.org/1999/xlink" x="0px" y="0px"
	 viewBox="0 0 2834.6 2834.6" style="enable-background:new 0 0 2834.6 2834.6;" xml:space="preserve">
<style type="text/css">
	.st0{fill:#FFFFFF;}
</style>
<path class="st0" d="M2804.6,1287c0-127.5-134.4-200.3-195.6-226.9V544.6l-6.7-19.6c-33.3-96.8-97.4-140.7-145.4-160.6
	c-57.8-23.9-124.4-27.1-198-9.4c-47,11.2-81.2,27.5-87.6,30.6l-8.7,4.2l-8,5.6c-2.1,1.5-209.4,146.7-436.2,290.9
	c-78.3,49.8-204.4,86-364.5,104.5c-45.2,5.2-87.4,8.3-123,10.2c0-0.5,0-0.9,0-1.4c-264.2,0-528.5,0-792.7,0
	c-162.1,0-295.9,63.4-377,162.1c-77.6,95.1-105.6,214.9-105.6,320.7c0,130.4,63.4,243.1,148,331.2c84.5,88.1,200.8,155,334.7,155
	c17.6,0,31.7,0,45.9,0c0,225.5,0,454.5,0,680c0,155,112.7,264.2,264.2,264.2s264.2-112.7,264.2-264.2c0-224.2,0-451.8,0-676
	l103.5,1.6c33.8,0.5,89,1.5,102.2,2c4.5,0.1,7.7,0.2,10.2,0.2c7,0.1,16.5,0.2,128.8,10.4c180.1,21.4,289.2,70.6,376.8,110.2
	c10.9,5,60.3,30.6,234.5,152.2c96.6,67.5,183.3,130.9,184.2,131.5l14.5,10.7l16.9,6.1c61,21.7,117,32.7,167.5,32.7
	c54.8,0,103.3-12.8,145.2-38.3c39.6-24.1,71.2-59.3,91.2-101.4c14.3-30,18.6-55.1,20-64.5l1.1-8.2v-504
	C2670.4,1487.3,2804.6,1414.5,2804.6,1287z M2360.5,1981.1c-10.7,1.4-34.3,1.2-76.7-12.2c-29.7-21.6-98.3-71.1-172.6-123
	c-185.4-129.6-245.7-162.1-274.8-175.2c-92.6-41.9-232.5-105.1-451.9-130.9l-3.2-0.4c-97.1-8.8-124.4-10.7-139.1-11.3v-478.6
	c39.6-2,86.3-5.5,136.6-11.2c201.8-23,361-70.8,473.2-142.2c202.2-128.8,389.6-258.4,435-290c7.7-3,20.8-7.7,35.8-10.8
	c20.9-4.2,33.2-3,37.8-1.7V1981.1z"/>
</svg>
