<svg version="1.1" id="Layer_1" xmlns="http://www.w3.org/2000/svg" xmlns:xlink="http://www.w3.org/1999/xlink" x="0px" y="0px"
	 width="100%" viewBox="0 0 186 186" enable-background="new 0 0 186 186" xml:space="preserve">
<path fill="#FFFFFF" opacity="1.000000" stroke="none" 
	d="
M63.000000,1.000000 
	C84.020897,1.000000 105.041786,1.000000 126.397560,1.365351 
	C126.160919,3.075504 125.101074,4.417042 125.092056,5.765603 
	C124.979752,22.569574 124.914810,39.375736 125.102119,56.178391 
	C125.143913,59.927666 126.807953,62.219387 131.596024,62.133896 
	C150.058929,61.804253 168.531219,62.000050 187.000000,62.000000 
	C187.000000,82.687561 187.000000,103.375122 186.531342,124.531403 
	C165.702866,124.994476 145.343033,124.988838 124.991562,124.991562 
	C124.999924,124.999924 125.016617,125.016617 125.009781,124.546906 
	C125.002945,103.493568 125.002945,82.909935 125.002945,61.966530 
	C103.886101,61.966530 83.426315,61.966530 62.982616,61.982613 
	C62.998699,61.998699 63.030865,62.030861 63.018684,61.560360 
	C63.004341,41.059906 63.002171,21.029953 63.000000,1.000000 
z"/>
<path fill="#FFFFFF" opacity="1.000000" stroke="none" 
	d="
M1.000000,125.000000 
	C1.000000,104.312439 1.000000,83.624878 1.468657,62.468742 
	C22.301832,62.010403 42.666348,62.020630 63.030865,62.030861 
	C63.030865,62.030861 62.998699,61.998699 62.996361,62.453308 
	C63.000771,83.600517 63.007519,104.293121 63.007515,124.992485 
	C63.000759,124.999245 62.987034,125.012772 62.519215,125.007553 
	C41.700932,125.001564 21.350466,125.000778 1.000000,125.000000 
z"/>
<path fill="#F4BC41" opacity="1.000000" stroke="none" 
	d="
M1.000000,125.468658 
	C21.350466,125.000778 41.700932,125.001564 62.524406,125.475311 
	C62.998276,146.298843 62.999138,166.649429 63.000000,187.000000 
	C42.406513,187.000000 21.813025,187.000000 1.000000,187.000000 
	C1.000000,166.646301 1.000000,146.291809 1.000000,125.468658 
z"/>
<path fill="#FFFFFF" opacity="1.000000" stroke="none" 
	d="
M63.468658,187.000000 
	C62.999138,166.649429 62.998276,146.298843 62.992226,125.480522 
	C62.987034,125.012772 63.000759,124.999245 63.475159,124.998398 
	C84.305244,125.003899 104.660934,125.010262 125.016617,125.016617 
	C125.016617,125.016617 124.999924,124.999924 124.998444,125.461304 
	C124.997971,146.281784 124.998985,166.640900 125.000000,187.000000 
	C104.645775,187.000000 84.291542,187.000000 63.468658,187.000000 
z"/>
<path fill="#CF6966" opacity="1.000000" stroke="none" 
	d="
M125.468658,187.000000 
	C124.998985,166.640900 124.997971,146.281784 124.990082,125.452942 
	C145.343033,124.988838 165.702866,124.994476 186.531342,125.000061 
	C187.000000,145.593491 187.000000,166.186966 187.000000,187.000000 
	C166.646301,187.000000 146.291809,187.000000 125.468658,187.000000 
z"/>
<path fill="#5EC08D" opacity="1.000000" stroke="none" 
	d="
M63.018684,61.560360 
	C42.666348,62.020630 22.301832,62.010403 1.468657,62.000084 
	C1.000000,41.739254 1.000000,21.478512 1.000000,1.000000 
	C21.353710,1.000000 41.708195,1.000000 62.531342,1.000000 
	C63.002171,21.029953 63.004341,41.059906 63.018684,61.560360 
z"/>
<path fill="#F4BC41" opacity="1.000000" stroke="none" 
	d="
M187.000000,61.531342 
	C168.531219,62.000050 150.058929,61.804253 131.596024,62.133896 
	C126.807953,62.219387 125.143913,59.927666 125.102119,56.178391 
	C124.914810,39.375736 124.979752,22.569574 125.092056,5.765603 
	C125.101074,4.417042 126.160919,3.075504 126.866219,1.365351 
	C146.927414,1.000000 166.854828,1.000000 187.000000,1.000000 
	C187.000000,21.020369 187.000000,41.041527 187.000000,61.531342 
z"/>
<path fill="#438FB9" opacity="1.000000" stroke="none" 
	d="
M125.009781,124.546906 
	C104.660934,125.010262 84.305244,125.003899 63.481911,124.991638 
	C63.007519,104.293121 63.000771,83.600517 62.980278,62.437222 
	C83.426315,61.966530 103.886101,61.966530 125.002945,61.966530 
	C125.002945,82.909935 125.002945,103.493568 125.009781,124.546906 
z"/>
</svg>